<svg viewBox="0 0 200 200" xmlns="http://www.w3.org/2000/svg">
  <path d="M100 190 Q40 190 50 110 Q60 50 100 50 Q140 50 150 110 Q160 190 100 190 Z" fill="#C4B5FD" stroke="#6D28D9" stroke-width="3"/>

  <path d="M100 50 Q80 20 60 40 Q70 70 100 60" fill="#A78BFA" stroke="#6D28D9" stroke-width="3"/>
  
  <g fill="none" stroke="#4C1D95" stroke-width="2">
     <path d="M75 100 C 75 90, 85 90, 85 100 C 85 110, 75 110, 75 100 M 80 100 L 80 100"/>
     <path d="M125 100 C 125 90, 135 90, 135 100 C 135 110, 125 110, 125 100"/>
  </g>

  <path d="M90 135 Q100 125 110 135" fill="none" stroke="#4C1D95" stroke-width="3" stroke-linecap="round"/>

  <circle cx="60" cy="140" r="3" fill="#6D28D9" opacity="0.5"/>
  <circle cx="140" cy="70" r="4" fill="#6D28D9" opacity="0.5"/>
  
  <circle cx="160" cy="50" r="6" fill="#4ADE80" opacity="0.6"/>
</svg>